<svg width="1024" height="1024" xmlns="http://www.w3.org/2000/svg" class="icon">
 <defs>
  <style type="text/css"/>
 </defs>
 <g>
  <title>background</title>
  <rect fill="none" id="canvas_background" height="1026" width="1026" y="-1" x="-1"/>
 </g>
 <g>
  <title>Layer 1</title>
  <path id="svg_1" fill="#ffffff" d="m566.594,512.533l288.992,-288.994c12.998,-12.993 11.492,-35.558 -3.361,-50.407c-14.846,-14.846 -37.405,-16.353 -50.406,-3.358l-288.991,288.994l-288.99,-288.994c-12.998,-12.995 -35.559,-11.489 -50.407,3.358c-14.851,14.849 -16.359,37.414 -3.36,50.407l288.992,288.994l-288.987,288.99c-12.995,12.99 -11.496,35.56 3.355,50.407c14.842,14.846 37.416,16.349 50.407,3.36l288.99,-288.992l288.993,288.992c12.988,12.989 35.564,11.486 50.406,-3.36c14.852,-14.847 16.35,-37.416 3.355,-50.408l-288.988,-288.99l0,0.001z"/>
  <rect stroke="null" id="svg_2" height="454.000019" width="461.000008" y="286.999981" x="283.5" fill-opacity="null" stroke-opacity="null" stroke-width="null" fill="#ffffff"/>
 </g>
</svg>